PathFileType	4	(X/Y/Z)	C:/Users/beibeiliu/ov580/test_trc/User2\sequence.30_training_dense_left.trc
DataRate	CameraRate	NumFrames	NumMarkers	Units	OrigDataRate	OrigDataStartFrame	OrigNumFrames
120	120	19	19	mm	120	27	78
Frame#	Time	ThumbCMC			ThumbMCP			ThumbIP			ThumbTip			IndexMCP			IndexPIP			IndexTip			MiddleMCP			MiddlePIP			MiddleTip			RingMCP			RingPIP			RingTip			PinkyMCP			PinkyPIP			PinkyTip			BackHand1			BackHand2			BackHand3	
		X0	Y0	Z0	X1	Y1	Z1	X2	Y2	Z2	X3	Y3	Z3	X4	Y4	Z4	X5	Y5	Z5	X6	Y6	Z6	X7	Y7	Z7	X8	Y8	Z8	X9	Y9	Z9	X10	Y10	Z10	X11	Y11	Z11	X12	Y12	Z12	X13	Y13	Z13	X14	Y14	Z14	X15	Y15	Z15	X16	Y16	Z16	X17	Y17	Z17	X18	Y18	Z18	
26	0.216667	-267.587	102.226	-2.5586	-256.236	128.855	-28.2509	-226.915	126.175	-50.1964	-206.682	106.482	-48.5683	-260.691	99.3784	-82.376	-252.685	107.36	-109.689	-244.942	121.229	-132.265	-237.178	82.6298	-93.8674	-233.919	97.6593	-119.715	-223.977	110.527	-146.68	-221.107	70.9346	-87.2027	-213.301	79.8526	-113.341	-205.532	94.2869	-139.415	-196.695	60.7956	-65.9492	-189.786	69.7912	-92.4912	-183.162	71.2911	-113.707	-227.339	48.8864	-34.4548	-237.465	34.3723	-2.15739	-263.206	63.3794	-20.0143	
27	0.225	-253.642	102.993	0.548635	-239.068	133.371	-22.3556	-207.922	125.054	-49.1325	-191.14	98.4127	-47.4887	-248.274	102.714	-79.2091	-247.214	117.232	-108.234	-235.625	126.053	-131.258	-233.503	89.6826	-92.2256	-224.512	99.3132	-120.476	-216.903	116.867	-149.192	-213.08	68.911	-84.2091	-205.597	79.2595	-113.107	-197.708	90.1928	-135.53	-191.29	56.4627	-65.1632	-184.798	65.141	-87.1379	-176.606	68.8269	-112.817	-227.085	52.2738	-31.8775	-234.847	36.5935	-2.9475	-255.918	67.2745	-21.8309	
28	0.233333	-246.837	105.902	-0.750001	-227.307	128.505	-19.9037	-197.725	120.35	-44.0975	-183.612	95.0613	-44.0429	-241.071	105.078	-81.0182	-236.265	116.089	-105.333	-225.851	129.672	-134.232	-227.358	88.4747	-87.5508	-218.855	101.413	-120.377	-206.675	111.852	-144.079	-208.046	69.4606	-85.9217	-201.885	78.6186	-112.447	-192.051	90.2768	-134.827	-189.275	55.3469	-65.1401	-176.969	59.5122	-90.9006	-170.311	63.1986	-114.361	-220.845	47.3625	-36.138	-234.957	35.504	-2.97966	-252.836	66.0437	-19.8945	
29	0.241667	-243.193	100.891	1.40976	-223.362	122.659	-23.3193	-193.665	120.552	-48.0033	-177.241	90.0669	-47.7831	-236.957	99.1959	-80.5351	-233.962	114.137	-106.684	-223.854	130.901	-132.22	-220.784	81.0998	-92.1242	-212.43	95.8458	-120.144	-199.885	112.389	-147.946	-203.595	65.8977	-85.4845	-194.412	74.749	-111.253	-181.68	85.7916	-134.548	-185.084	53.5355	-65.8635	-172.672	57.065	-92.0494	-164.811	63.1378	-114.482	-221.219	45.9208	-32.0386	-230.634	34.3782	-5.34141	-250.63	63.2343	-20.1182	
30	0.25	-241.099	94.3074	-4.39008	-223.661	120.826	-28.3546	-194.945	113.852	-46.3778	-179.147	85.8806	-47.6177	-239.998	98.0091	-85.8015	-232.038	107.177	-107.886	-218.201	125.35	-134.597	-218.781	75.8107	-90.881	-208.207	90.6777	-121.683	-193.385	106.343	-144.462	-200.852	61.5004	-88.7365	-187.767	71.1765	-113.184	-178	90.7549	-133.881	-180.846	48.7868	-68.8648	-168.522	54.2581	-89.8072	-158.726	61.7977	-116.891	-216.667	37.4012	-36.8896	-227.598	27.8662	-5.11549	-248.07	56.7129	-22.6699	
31	0.258333	-243.288	93.2322	-2.86534	-224.389	120.803	-28.9929	-196.988	112.812	-48.862	-177.021	87.0051	-54.0536	-238.136	92.2141	-87.21	-233.518	107.047	-109.342	-218.209	124.879	-131.622	-219.458	76.3262	-95.1176	-206.518	92.1079	-121.268	-190.23	111.285	-143.471	-197.119	59.0893	-86.0611	-187.358	71.7467	-108.433	-172.446	92.1093	-130.131	-178.847	46.1791	-65.8781	-164.746	54.1999	-91.4504	-156.726	63.4313	-110.216	-217.743	36.0291	-35.1796	-228.175	28.1749	-3.09833	-250.064	58.5553	-22.5263	
32	0.266667	-242.78	92.8887	-4.43286	-225.022	117.813	-28.6956	-195.169	113.425	-52.7547	-178.577	85.8711	-53.4532	-239.328	90.2173	-82.9347	-228.059	103.932	-110.58	-209.819	120.596	-129.909	-216.178	72.4333	-91.5554	-202.111	88.7936	-118.796	-182.566	111.211	-136.504	-198.345	59.3665	-86.1038	-183.579	70.2917	-107.203	-167.327	91.6859	-124.393	-177.396	44.4225	-67.1943	-167.127	56.5807	-90.7044	-153.937	67.953	-111.784	-217.047	33.9724	-35.3319	-228.081	27.3143	-2.0843	-245.459	53.0846	-20.4249	
33	0.275	-243.439	92.713	-4.47396	-222.481	114.844	-32.1488	-191.811	106.26	-57.4173	-176.56	83.467	-56.403	-232.129	84.0676	-85.3137	-220.615	97.4198	-111.265	-200.486	116.403	-127.614	-213.302	71.7369	-93.727	-196.135	86.5757	-116.674	-175.03	107.478	-130.897	-194.591	57.5929	-87.6652	-178.962	68.8738	-105.828	-159.636	91.7818	-121.591	-175.623	41.2859	-70.8389	-164.059	54.7703	-90.4821	-150.038	63.5136	-108.954	-218.995	33.209	-35.2121	-227.454	24.7176	-6.03079	-246.679	50.1877	-22.5406	
34	0.283333	-238.945	87.2478	-5.98341	-218.084	111.09	-33.3745	-190.597	101.676	-56.7377	-174.352	75.2872	-58.6961	-230.178	80.0764	-86.2227	-212.262	94.0029	-113.833	-193.395	107.707	-125.901	-209.949	66.7189	-95.8873	-188.294	82.8627	-117.505	-163.746	106.029	-128.339	-190.805	49.2561	-87.5195	-175.63	66.8801	-108.286	-153.644	88.4601	-119.136	-175.104	35.0118	-66.3821	-160.243	49.1129	-91.9627	-147.575	63.6991	-108.944	-217.681	28.3243	-35.4052	-226.314	19.5649	-2.13305	-243.867	45.9035	-23.1056	
35	0.291667	-235.422	86.1233	-6.33194	-213.754	103.447	-37.9539	-187.793	93.9787	-58.7152	-171.037	68.9713	-60.4088	-227.384	76.5305	-89.9258	-210.281	92.5936	-115.645	-188.741	104.309	-126.138	-203.482	59.4982	-97.1759	-184.817	79.5414	-117.389	-160.568	100.794	-127.947	-186.808	44.6711	-88.6612	-169.722	62.0865	-108.999	-151.248	83.2904	-117.129	-171.928	30.659	-73.0389	-156.401	44.4543	-93.3927	-141.659	56.8195	-106.225	-214.109	21.9672	-38.251	-223.877	14.6936	-4.90179	-241.144	44.1308	-21.8247	
36	0.3	-233.641	85.5752	-7.98983	-211.213	101.246	-38.059	-185.059	92.1228	-59.3582	-166.05	66.2289	-66.2331	-221.337	72.9506	-90.4853	-207.779	84.8904	-112.913	-183.296	100.126	-126.738	-203.485	58.3806	-95.1858	-184.83	76.4192	-116.152	-155.572	93.8267	-126.73	-185.976	42.5822	-86.9686	-169.563	57.5456	-105.932	-146.702	84.1674	-118.082	-171.182	31.3836	-72.74	-156.102	43.7425	-91.6343	-137.686	56.3875	-107.83	-210.953	19.7252	-34.4547	-223.048	14.7301	-5.98837	-239.413	43.2974	-22.7992	
37	0.308333	-231.705	84.3602	-10.25	-210.501	101.133	-39.5221	-184.184	93.5929	-59.5055	-165.445	67.8508	-66.4779	-219.135	74.6016	-94.2472	-205.24	87.428	-115.87	-183.366	104.678	-128.305	-201.318	57.3812	-93.6809	-180.96	75.444	-116.527	-154.092	93.5469	-126.97	-184.159	42.1271	-87.4419	-167.855	61.273	-109.167	-142.922	81.2988	-119.974	-170.947	28.0838	-67.9668	-153.83	40.5978	-90.0457	-143.381	55.1431	-107.054	-213.853	23.7935	-33.1836	-220.752	12.987	-4.74697	-241.798	46.4649	-25.5463	
38	0.316667	-230.53	85.7665	-8.77669	-209.111	108.363	-37.2338	-181.676	98.3112	-61.3117	-165.365	73.4542	-61.2307	-220.976	79.3196	-89.3725	-207.192	95.6162	-115.306	-182.699	107.462	-129.366	-204.188	65.6672	-94.2416	-181.186	80.5921	-118.084	-153.287	99.9211	-131.575	-186.103	49.666	-89.1969	-169.065	62.6052	-109.72	-148.325	82.5834	-122.222	-170.483	34.9143	-70.3403	-153.848	42.531	-91.0862	-138.528	56.7234	-112.502	-208.842	26.4906	-33.6428	-222.668	20.9042	-6.30739	-241.758	49.6346	-25.0002	
39	0.325	-226.056	92.9583	-5.55689	-205.01	113.051	-30.2696	-176.862	102.584	-58.7125	-163.286	72.3026	-59.8972	-218.821	91.3272	-91.0901	-210.031	103.047	-111.867	-187.388	118.983	-131.8	-201.936	72.0192	-97.0319	-184.633	88.2627	-121.848	-162.954	102.017	-137.643	-189.532	56.9214	-88.2575	-172.801	67.5458	-112.775	-151.821	85.0805	-130.914	-171.078	39.5829	-72.0808	-157.322	46.11	-94.9828	-143.222	57.5709	-116.252	-211.108	36.2901	-35.0335	-218.896	26.7719	-6.43787	-239.328	59.5965	-21.3354	
40	0.333333	-221.055	108.361	-2.15561	-197.175	122.577	-28.8507	-172.251	111.198	-55.7604	-161.658	79.9393	-58.2992	-222.485	102.705	-86.6812	-216.916	116.552	-109.869	-201.547	126.289	-132.892	-209.364	82.6752	-94.0181	-199.566	94.7432	-122.325	-183.912	112.001	-147.188	-194.277	62.4848	-87.734	-186.313	71.413	-114.378	-169.43	89.1406	-139.046	-178.051	46.8079	-68.7984	-165.556	46.2578	-95.4032	-158.409	53.6853	-120.615	-207.651	44.6309	-37.1645	-219.421	36.5664	-5.58609	-236.015	68.3994	-19.3929	
41	0.341667	-221.069	115.961	3.5169	-196.056	132.657	-19.86	-169.493	119.549	-51.6402	-164.502	88.1729	-49.7217	-226.508	114.174	-76.8851	-225.267	125.062	-101.685	-215.024	134.654	-128.255	-214.21	91.951	-90.4569	-209.957	103.764	-119.521	-197.198	113.914	-148.628	-197.997	69.5974	-83.1339	-194.91	79.7424	-110.519	-184.267	93.2013	-137.641	-177.718	51.378	-66.9601	-170.32	52.3837	-93.9253	-162.661	53.226	-121.22	-208.76	55.7627	-32.6537	-219.918	47.4372	-3.13583	-236.151	79.3812	-13.6896	
42	0.35	-222.229	118.759	4.02976	-201.03	141.769	-19.9944	-174.94	123.606	-44.7142	-166.286	98.5082	-43.0059	-232.008	119.209	-72.8824	-230.373	130.391	-102.101	-225.041	141.484	-129.799	-216.794	98.0756	-88.4316	-213.38	106.971	-117.882	-207.383	122.382	-148.376	-198.686	76.0236	-79.7814	-194.484	80.8948	-110.331	-189.637	95.0106	-136.505	-177.185	59.1435	-63.6131	-172.003	59.3369	-90.9147	-167.933	59.7842	-115.938	-208.857	61.1516	-27.8475	-217.591	50.5196	0.230004	-235.728	82.1344	-11.6083	
43	0.358333	-228.258	118.912	3.93099	-208.412	138.803	-21.9055	-181.927	129.799	-45.3541	-168.426	98.3223	-45.6653	-233.027	112.819	-77.97	-237.846	125.148	-100.997	-232.348	133.736	-128.281	-218.098	94.074	-86.1828	-219.249	107.711	-120.108	-209.977	118.398	-147.326	-201.355	77.4846	-83.5709	-198.302	81.2918	-108.347	-189.98	92.9105	-138.32	-180.137	64.3536	-66.5502	-172.921	62.7967	-90.9205	-170.035	63.4458	-113.985	-209.076	62.8933	-31.342	-214.501	47.7916	-0.722637	-238.147	81.3229	-11.9041	
44	0.366667	-227.348	109.463	1.61379	-210.158	135.137	-28.3321	-182.684	122.221	-56.8323	-171.447	95.1016	-50.8004	-236.278	105.947	-79.1106	-238.508	113.825	-105.863	-231.21	125.279	-135.922	-220.901	88.6597	-87.9986	-217.355	97.3629	-120.271	-209.739	112.966	-151.306	-200.354	70.454	-87.9769	-197.793	75.3965	-111.842	-188.308	89.2165	-141.474	-178.657	60.464	-66.1526	-171.248	61.1981	-97.4435	-169.699	66.9789	-122.779	-207.342	56.2765	-31.762	-216.219	46.6675	-3.32817	-239.153	75.4185	-18.4898	
